<svg xmlns="http://www.w3.org/2000/svg" xmlns:xlink="http://www.w3.org/1999/xlink" aria-hidden="true" role="img" class="iconify iconify--logos" width="35.93" height="32" preserveAspectRatio="xMidYMid meet" viewBox="0 0 256 228"><path fill="#00D8FF" d="M210.483 73.824a171.49 171.49 0 0 0-8.24-2.597c.465-1.9.893-3.777 1.273-5.621c6.238-30.281 2.16-54.676-11.769-62.708c-13.355-7.7-35.196.329-57.254 19.526a171.23 171.23 0 0 0-6.375 5.848a155.866 155.866 0 0 0-4.241-3.917C100.759 3.829 77.587-4.822 63.673 3.233C50.33 10.957 46.379 33.89 51.995 62.588a170.974 170.974 0 0 0 1.892 8.48c-3.28.932-6.445 1.924-9.474 2.98C17.309 83.498 0 98.307 0 113.668c0 15.865 18.582 31.778 46.812 41.427a145.52 145.52 0 0 0 6.921 2.165a167.467 167.467 0 0 0-2.01 9.138c-5.354 28.2-1.173 50.591 12.134 58.266c13.744 7.926 36.812-.22 59.273-19.855a145.567 145.567 0 0 0 5.342-4.923a168.064 168.064 0 0 0 6.92 6.314c21.758 18.722 43.246 26.282 56.54 18.586c13.731-7.949 18.194-32.003 12.4-61.268a145.016 145.016 0 0 0-1.535-6.842c1.62-.48 3.21-.974 4.76-1.488c29.348-9.723 48.443-25.443 48.443-41.52c0-15.417-17.868-30.326-45.517-39.844Zm-6.365 70.984c-1.596.54-3.233 1.knowledge06-4.902 1.47c-3.517-10.627-8.56-21.932-14.998-33.48c6.15-11.178 11.003-22.328 14.386-32.9c8.066 2.784 15.44 6.01 21.952 9.572c16.46 9.22 26.286 20.539 26.286 29.974c0 10.174-11.164 22.148-29.906 31.261a128.96 128.96 0 0 1-12.818 4.103Zm-92.061 37.814c-2.26 2.253-4.525 4.39-6.796 6.376c-7.755 6.878-15.635 12.137-22.959 15.512c-7.584 3.508-13.818 4.398-17.321 2.363c-7.207-4.158-10.88-22.484-6.504-48.382a134.197 134.197 0 0 1 1.976-8.952c8.337 1.923 17.517 3.308 27.317 4.103c5.763 7.977 11.893 15.564 18.257 22.52a155.91 155.91 0 0 1 5.03 6.46Zm-32.063-72.947c4.157-8.492 8.817-16.89 13.913-25.076c5.203 8.32 9.945 16.79 14.123 25.29c-4.585-.488-9.218-.73-13.873-.73c-4.769 0-9.52.254-14.163.516Zm53.002-8.163c-4.178-8.5-8.921-16.969-14.123-25.29c5.096-8.186 9.756-16.584 13.913-25.076c4.643.262 9.394.516 14.163.516c4.655 0 9.288-.242 13.873-.73c-4.178 8.5-8.92 16.97-14.123 25.29c5.203 8.32 9.945 16.79 14.123 25.29c-4.585-.488-9.218-.73-13.873-.73c-4.769 0-9.52.254-14.163.516l.21-.786Zm28.796 11.97c4.696.508 9.313.754 13.835.754c4.762 0 9.512-.258 14.163-.516c-4.157 8.492-8.817 16.89-13.913 25.076c-5.203-8.32-9.945-16.79-14.123-25.29l.038-.024Zm-15.816 53.337c-6.364-6.956-12.494-14.543-18.257-22.52c5.803.414 11.758.626 17.84.626c6.195 0 12.254-.22 18.115-.646c-5.76 7.98-11.887 15.569-18.254 22.524l.556-.984ZM128.007 72.971c6.195 0 12.254.22 18.115.646c-5.76 7.98-11.887 15.569-18.254 22.524c-6.364-6.956-12.494-14.543-18.257-22.52c5.803.414 11.758.626 17.84.626l.556-.276Zm-35.44-4.928c-8.8-.795-17.98-2.18-27.317-4.103a134.198 134.198 0 0 1-1.976-8.952c-4.376-25.898-.703-44.224 6.504-48.382c3.503-2.035 9.737-1.145 17.321 2.363c7.324 3.375 15.204 8.634 22.959 15.512c2.27 1.986 4.536 4.123 6.796 6.376a155.91 155.91 0 0 0-5.03 6.46c-6.364 6.957-12.494 14.544-18.257 22.52l-1 8.206Zm-9.46 37.95c-3.383-10.572-8.236-21.722-14.386-32.9c6.438-11.548 11.481-22.853 14.998-33.48c1.669.464 3.306.93 4.902 1.47c27.742 9.113 45.517 24.022 45.517 39.439c0 16.076-19.095 31.796-48.443 41.52c-1.55.514-3.14 1.008-4.76 1.488a145.016 145.016 0 0 0 2.172-17.537Z"></path></svg>
